<svg xmlns="http://www.w3.org/2000/svg" viewBox="0 0 100 100">
  <g>
    <animateTransform attributeName="transform" type="rotate"
      values="-2 50 50;2 50 50;-2 50 50" dur="3s" repeatCount="indefinite" />

    <circle cx="50" cy="50" r="40" fill="#FFC9D9" />

    <g>
      <path d="M10,30 Q20,5 35,30 Q25,40 10,30" fill="#FFC9D9">
        <animateTransform attributeName="transform" type="rotate"
          values="-3 20 30;3 20 30;-3 20 30" dur="2s" repeatCount="indefinite" />
      </path>
      <path d="M12,30 Q20,12 33,30 Q23,35 12,30" fill="#FFB6C1" />
    </g>

    <g>
      <path d="M90,30 Q80,5 65,30 Q75,40 90,30" fill="#FFC9D9">
        <animateTransform attributeName="transform" type="rotate"
          values="3 80 30;-3 80 30;3 80 30" dur="2s" repeatCount="indefinite" />
      </path>
      <path d="M88,30 Q80,12 67,30 Q77,35 88,30" fill="#FFB6C1" />
    </g>

    <g>
      <ellipse cx="40" cy="48" rx="6" ry="8" fill="#000">
        <animate attributeName="ry" values="8;6;8" dur="4s" repeatCount="indefinite" />
      </ellipse>
      <ellipse cx="60" cy="48" rx="6" ry="8" fill="#000">
        <animate attributeName="ry" values="8;6;8" dur="4s" repeatCount="indefinite" />
      </ellipse>

      <circle cx="38" cy="45" r="1.5" fill="#FFF">
        <animate attributeName="r" values="1.5;0.5;1.5" dur="2s" repeatCount="indefinite" />
      </circle>
      <circle cx="42" cy="50" r="1" fill="#FFF">
        <animate attributeName="r" values="1;0.2;1" dur="2.5s" repeatCount="indefinite" />
      </circle>
      <circle cx="58" cy="45" r="1.5" fill="#FFF">
        <animate attributeName="r" values="1.5;0.5;1.5" dur="2s" repeatCount="indefinite" />
      </circle>
      <circle cx="62" cy="50" r="1" fill="#FFF">
        <animate attributeName="r" values="1;0.2;1" dur="2.5s" repeatCount="indefinite" />
      </circle>
    </g>

    <circle cx="33" cy="58" r="4.5" fill="#FF9EBB" />
    <circle cx="67" cy="58" r="4.5" fill="#FF9EBB" />

    <ellipse cx="50" cy="63" rx="10" ry="5" fill="#FFB6C1">
      <animate attributeName="cy" values="63;60;63" dur="1s" repeatCount="indefinite" />
    </ellipse>
    <circle cx="47" cy="63" r="1.5" fill="#000" />
    <circle cx="53" cy="63" r="1.5" fill="#000" />

    <path d="M43,70 Q50,74 57,70" stroke="#FF88AA" stroke-width="2" fill="none">
      <animate attributeName="d"
        values="M43,70 Q50,74 57,70; M43,70 Q50,72 57,70; M43,70 Q50,74 57,70"
        dur="2s" repeatCount="indefinite" />
    </path>

    <rect x="35" y="85" width="5" height="10" fill="#FFC9D9">
      <animate attributeName="y" values="85;90;85" dur="1s" repeatCount="indefinite" />
    </rect>

    <rect x="60" y="85" width="5" height="10" fill="#FFC9D9">
      <animate attributeName="y" values="85;90;85" dur="1s" repeatCount="indefinite" begin="0.5s" />
    </rect>

    <circle cx="37.5" cy="95" r="2" fill="#FFB6C1" />
    <circle cx="62.5" cy="95" r="2" fill="#FFB6C1" />
  </g>
</svg>
